HIERARCHY
ROOT root
{
	OFFSET 0.000000 0.000000 0.000000
	CHANNELS 6 Xposition Yposition Zposition Zrotation Yrotation Xrotation
	JOINT lhip
	{
		OFFSET 0.058581 -0.082280 -0.017664
		CHANNELS 3 Zrotation Yrotation Xrotation
		JOINT lknee
		{
			OFFSET 0.043451 -0.386469 0.008037
			CHANNELS 3 Zrotation Yrotation Xrotation
			JOINT lankle
			{
				OFFSET -0.014790 -0.426874 -0.037428
				CHANNELS 3 Zrotation Yrotation Xrotation
				JOINT ltoe
				{
					OFFSET 0.041054 -0.060286 0.122042
					CHANNELS 3 Zrotation Yrotation Xrotation
					End Site
					{
						OFFSET 0.000000 0.000000 0.000000
					}
				}
			}
		}
	}
	JOINT rhip
	{
		OFFSET -0.060310 -0.090513 -0.013543
		CHANNELS 3 Zrotation Yrotation Xrotation
		JOINT rknee
		{
			OFFSET -0.043257 -0.383688 -0.004843
			CHANNELS 3 Zrotation Yrotation Xrotation
			JOINT rankle
			{
				OFFSET 0.019056 -0.420046 -0.034562
				CHANNELS 3 Zrotation Yrotation Xrotation
				JOINT rtoe
				{
					OFFSET -0.034840 -0.062106 0.130323
					CHANNELS 3 Zrotation Yrotation Xrotation
					End Site
					{
						OFFSET 0.000000 0.000000 0.000000
					}
				}
			}
		}
	}
	JOINT lowerback
	{
		OFFSET 0.004439 0.124404 -0.038385
		CHANNELS 3 Zrotation Yrotation Xrotation
		JOINT upperback
		{
			OFFSET 0.004488 0.137956 0.026820
			CHANNELS 3 Zrotation Yrotation Xrotation
			JOINT chest
			{
				OFFSET -0.002265 0.056032 0.002855
				CHANNELS 3 Zrotation Yrotation Xrotation
				JOINT lowerneck
				{
					OFFSET -0.013390 0.211636 -0.033468
					CHANNELS 3 Zrotation Yrotation Xrotation
					JOINT upperneck
					{
						OFFSET 0.010113 0.088937 0.050410
						CHANNELS 3 Zrotation Yrotation Xrotation
						End Site
						{
							OFFSET 0.000000 0.000000 0.000000
						}
					}
				}
				JOINT lclavicle
				{
					OFFSET 0.071702 0.114000 -0.018898
					CHANNELS 3 Zrotation Yrotation Xrotation
					JOINT lshoulder
					{
						OFFSET 0.122921 0.045205 -0.019046
						CHANNELS 3 Zrotation Yrotation Xrotation
						JOINT lelbow
						{
							OFFSET 0.255332 -0.015649 -0.022946
							CHANNELS 3 Zrotation Yrotation Xrotation
							JOINT lwrist
							{
								OFFSET 0.265709 0.012698 -0.007375
								CHANNELS 3 Zrotation Yrotation Xrotation
								End Site
								{
									OFFSET 0.000000 0.000000 0.000000
								}
							}
						}
					}
				}
				JOINT rclavicle
				{
					OFFSET -0.082954 0.112472 -0.023707
					CHANNELS 3 Zrotation Yrotation Xrotation
					JOINT rshoulder
					{
						OFFSET -0.113228 0.046853 -0.008472
						CHANNELS 3 Zrotation Yrotation Xrotation
						JOINT relbow
						{
							OFFSET -0.260127 -0.014369 -0.031269
							CHANNELS 3 Zrotation Yrotation Xrotation
							JOINT rwrist
							{
								OFFSET -0.269108 0.006794 -0.006027
								CHANNELS 3 Zrotation Yrotation Xrotation
								End Site
								{
									OFFSET 0.000000 0.000000 0.000000
								}
							}
						}
					}
				}
			}
		}
	}
}
MOTION
Frames: 14
Frame Time: 0.033333
-0.507542 0.689667 1.018662 80.461861 -15.526156 66.819423 23.841637 6.192204 -74.688609 -5.480538 19.380509 120.161243 -3.681823 -4.495049 9.632901 0.000000 -0.000000 0.000000 -15.895238 -7.171819 15.838623 1.050398 11.622254 21.608178 -5.163886 0.965853 -16.605737 0.000000 -0.000000 0.000000 -2.546993 16.831706 24.878270 -1.557615 -5.341804 9.144974 -2.745507 2.078554 4.989418 -5.187412 7.839148 27.429557 5.669471 4.952981 18.602044 -17.853027 1.651076 7.466767 -55.231318 8.024824 -3.688597 14.523467 -47.470706 16.661619 0.768769 6.711430 -4.180894 13.500488 3.432832 10.545944 52.337730 5.165282 -1.183431 -16.565602 54.630830 8.638211 5.972970 -5.385229 -10.124723 
-0.512148 0.686983 1.018277 80.704536 -14.418580 68.378540 21.944861 4.185408 -67.968495 -6.554031 17.434518 114.343484 -3.282650 -3.020321 10.387763 0.000000 -0.000000 0.000000 -14.083008 -7.197416 14.481567 1.066263 10.440306 20.771981 -5.081170 0.814242 -15.684048 0.000000 -0.000000 0.000000 -2.242135 15.829666 23.825427 -1.354904 -4.698851 9.234907 -2.638174 2.056905 5.152195 -4.604359 7.696759 27.562939 5.576117 4.588906 18.810780 -17.586059 2.027252 6.729314 -54.811542 7.007011 -2.827581 13.940251 -48.480525 17.345820 -0.078997 6.125188 -3.496588 13.616270 2.863230 10.298581 53.170554 4.795029 -0.659834 -16.690193 53.531003 8.367025 5.479027 -5.147018 -10.047424 
-0.515069 0.685003 1.017305 80.901716 -13.563652 70.052068 20.045495 2.074220 -60.243293 -7.158813 15.741756 106.832075 -3.370535 -1.655156 11.777359 0.000000 -0.000000 0.000000 -12.743174 -7.100342 13.051870 1.199004 9.140222 19.996431 -5.213705 0.863556 -15.068943 0.000000 -0.000000 0.000000 -2.060224 14.790090 22.175540 -1.334450 -4.243389 10.302499 -2.664931 1.911294 4.633277 -4.328726 7.576996 27.850053 5.653365 4.419133 18.171362 -17.641470 2.279311 6.978191 -54.413368 6.468856 -2.505723 13.991436 -50.194008 16.269931 -0.883392 5.587433 -2.580636 13.868468 2.716052 10.621429 54.233975 4.157475 -0.359306 -17.437679 52.623840 6.922673 6.110034 -5.243092 -9.137864 
-0.517242 0.682920 1.016531 81.350876 -12.544531 71.561528 17.814167 -0.171587 -51.947066 -7.853049 13.755334 97.535681 -3.861424 0.129707 13.649410 0.000000 -0.000000 0.000000 -11.133901 -6.506771 12.064488 1.388707 7.788320 18.797211 -5.324660 0.333241 -14.165383 0.000000 -0.000000 0.000000 -1.663353 13.340224 20.842777 -1.317617 -3.776792 10.852141 -2.751369 1.851896 4.543997 -3.780338 7.584333 27.947169 4.993416 4.299005 18.035141 -17.661800 3.157989 6.283985 -54.051919 5.922734 -1.305249 13.884439 -51.449915 16.012552 -1.328742 5.017288 -2.580689 14.162511 1.874266 10.063896 55.369833 3.512897 0.867126 -17.298002 51.216528 6.595478 4.952413 -5.482475 -8.429371 
-0.516519 0.681468 1.014528 81.541014 -11.525682 73.428887 15.509365 -1.636385 -43.705330 -8.204309 11.283908 87.077875 -4.546818 1.457874 15.961790 0.000000 -0.000000 0.000000 -9.698029 -6.232639 10.522556 1.532039 6.723186 18.308367 -5.367334 0.354903 -13.880893 0.000000 -0.000000 0.000000 -1.317056 12.072370 18.742142 -1.152614 -3.213459 11.390507 -2.758894 1.668821 4.311726 -3.553730 7.461492 28.384094 4.897106 3.838206 17.302114 -17.685454 4.256565 6.397986 -54.515931 5.193612 -0.854613 14.264996 -52.376776 15.350247 -2.050860 4.781886 -2.271093 14.605837 0.600999 10.189863 56.104572 2.771265 1.206258 -16.243578 50.376099 7.397017 4.801689 -5.334970 -7.702846 
-0.515120 0.681019 1.012338 81.679588 -10.551754 75.136537 13.071426 -2.403239 -35.585007 -8.559233 8.229335 76.090456 -4.104387 2.999742 16.282770 0.000000 -0.000000 0.000000 -8.497846 -5.821058 9.069500 1.946699 6.015809 17.915056 -5.044174 -0.028398 -13.432023 0.000000 -0.000000 0.000000 -0.918059 10.621460 17.181541 -0.966143 -2.560237 11.105971 -2.682127 1.403788 4.604800 -3.127149 7.411337 28.216268 4.094271 3.750356 18.136821 -17.870760 5.627340 6.061367 -55.283092 4.441022 -0.323207 14.522339 -52.439970 15.383165 -2.909624 4.485618 -2.517583 14.942723 -0.913228 9.974974 56.690532 2.121727 1.897637 -15.712065 49.656456 8.188433 5.473419 -5.138166 -7.182703 
-0.513325 0.681699 1.009812 82.522310 -9.193190 76.756121 10.901615 -2.830621 -28.257414 -8.407806 4.501159 64.986566 -3.684852 4.533123 17.160255 0.000000 -0.000000 0.000000 -7.058546 -5.917012 7.782082 2.187465 5.007739 17.487833 -4.974692 -0.302743 -13.068660 0.000000 -0.000000 0.000000 -0.062051 8.866785 15.891397 -0.781828 -2.465553 10.871449 -2.447503 1.091171 4.599681 -3.387098 7.127459 27.922882 3.964202 3.918000 17.709234 -17.972745 6.086228 6.283348 -56.807395 4.088134 -0.204557 15.103664 -51.629707 14.764303 -3.093199 4.526952 -2.825833 14.934301 -1.986241 9.884327 57.375320 0.907357 1.779125 -14.888546 49.690510 9.167232 5.285705 -4.748359 -6.203565 
-0.512235 0.682922 1.006558 83.681366 -7.840451 78.536042 9.407030 -3.019550 -21.946236 -8.586937 0.474249 53.901316 -4.203115 4.950597 18.972000 0.000000 -0.000000 0.000000 -5.489687 -5.603385 6.090208 2.471616 3.815405 17.300450 -5.317046 -1.124276 -12.874056 0.000000 -0.000000 0.000000 0.620353 7.050022 14.467553 -0.456373 -2.526964 10.646121 -2.191570 0.511897 4.555080 -3.205605 7.010077 27.434796 3.553792 3.912326 17.839413 -18.039686 6.509842 6.631732 -58.401136 3.704721 -0.079247 16.027328 -50.380118 14.085068 -4.268666 4.917391 -3.081489 14.596258 -2.812588 9.883996 58.287103 0.182094 2.013772 -14.640871 49.918698 9.852098 5.912433 -4.413594 -6.307508 
-0.511414 0.684952 1.003469 84.816274 -6.601106 80.117434 8.260197 -2.410981 -16.334288 -9.467271 -4.357736 44.919229 -3.982927 4.681325 17.748051 0.000000 -0.000000 0.000000 -4.176542 -5.350633 4.481180 2.779063 2.691630 17.342320 -5.298607 -1.958655 -12.888824 0.000000 -0.000000 0.000000 1.208805 5.203703 13.716892 -0.164002 -2.494683 9.899970 -1.905531 -0.060232 4.884449 -2.951196 6.647821 26.662647 3.050869 4.070421 18.165147 -18.314300 7.037517 6.567179 -59.487663 3.585530 0.117262 15.974935 -49.047434 14.645039 -5.141938 5.210185 -2.818296 14.438369 -3.616902 9.332598 58.726825 -0.222129 2.365555 -14.087514 50.543859 10.927558 7.447851 -4.180050 -6.443062 
-0.512103 0.686451 1.001262 86.123173 -5.628587 81.343015 7.572486 -0.829145 -12.931403 -7.025080 -5.633147 40.388104 -0.979843 6.320539 7.508592 0.000000 -0.000000 0.000000 -2.870823 -5.373701 2.760958 2.638368 1.728640 17.846138 -4.860784 -3.220010 -13.102700 0.000000 -0.000000 0.000000 1.664480 3.681060 13.553881 0.033259 -2.730220 9.476209 -1.696522 -0.494873 5.268301 -2.682593 6.064398 25.825482 2.931775 3.910221 17.835194 -18.426090 6.994687 6.889692 -59.966404 3.090823 -0.256903 15.050109 -48.048817 17.457816 -7.243766 5.343124 -3.086286 14.340909 -3.929150 8.891897 59.504433 0.425377 2.476164 -13.490176 50.933189 12.479718 8.399935 -3.811752 -6.257039 
-0.515478 0.687430 0.999226 87.538994 -5.333871 82.435776 7.397179 0.269786 -10.983223 -6.612659 -6.090102 34.475460 1.149301 6.622234 4.882785 0.000000 -0.000000 0.000000 -2.322765 -4.892461 0.684576 2.685160 1.000322 18.849450 -4.896572 -4.477340 -13.050763 0.000000 -0.000000 0.000000 1.406883 2.571813 13.562519 0.275949 -3.080284 10.223264 -1.570095 -0.825561 5.184765 -2.259817 5.716215 24.192646 2.778779 3.331198 18.360013 -18.188125 6.644578 6.677723 -60.317264 3.064197 0.091851 14.607467 -47.696922 18.583229 -7.491768 5.175651 -2.557767 14.184807 -3.159109 7.993925 60.690498 1.176459 3.645316 -15.224710 51.609081 11.061317 10.910642 -3.443042 -5.532585 
-0.522453 0.687929 0.998588 89.250248 -5.523770 83.739128 6.796760 0.681131 -11.862727 -6.835951 -6.433281 31.812255 2.642537 7.296655 4.395019 0.000000 -0.000000 0.000000 -2.439601 -4.714193 -1.843854 2.807603 0.367462 19.892740 -4.916177 -5.277742 -12.945378 0.000000 -0.000000 0.000000 1.224581 2.076809 14.458997 0.264656 -3.317223 9.848476 -1.464087 -1.085232 5.361411 -2.133898 5.083609 22.850972 2.913389 2.913233 18.176017 -18.031960 5.785364 7.032991 -59.902284 2.553308 0.282433 13.937065 -48.000608 19.776491 -6.371551 5.030397 -2.207761 13.853040 -2.463206 7.548587 62.128476 2.417831 4.377716 -15.742513 52.212138 11.034576 9.961249 -3.688798 -5.842673 
-0.530605 0.687827 0.999898 90.856654 -6.217877 85.146653 5.941852 0.638071 -13.527283 -6.569441 -6.084403 29.850136 2.843468 6.534121 5.021102 0.000000 -0.000000 0.000000 -3.068862 -4.966609 -4.160919 2.618607 -0.637012 19.951234 -4.712355 -5.475329 -12.410614 0.000000 -0.000000 0.000000 1.341710 2.243127 15.675297 0.061714 -3.254781 9.204730 -1.588384 -1.207494 5.442549 -2.068152 4.423417 22.052719 3.190043 1.787822 18.197140 -17.913615 4.879096 6.943869 -58.980113 1.687725 0.712816 13.595669 -48.547404 19.844566 -6.538345 5.142976 -1.726670 13.654209 -1.650188 7.247484 63.081671 3.280776 5.225887 -16.714717 53.357039 10.158494 8.578357 -3.676955 -5.747209 
-0.538535 0.687199 1.002188 91.950244 -7.123280 86.766412 5.133794 0.688027 -14.842385 -6.410332 -6.238338 27.153939 3.043753 5.017080 5.331768 0.000000 -0.000000 0.000000 -4.078441 -5.686879 -5.986206 2.564134 -1.689430 18.802491 -4.324195 -4.887685 -11.416689 0.000000 -0.000000 0.000000 1.652055 2.924806 16.833606 -0.214303 -2.782936 8.746168 -1.568784 -1.005077 5.132491 -2.528433 3.405700 22.059546 3.673023 1.164074 17.580274 -18.046973 3.208920 6.765562 -58.105440 1.216582 1.358049 13.708548 -49.172568 18.176389 -4.691801 4.592721 -0.107599 13.065035 -0.047164 7.092365 63.459278 2.983907 5.438889 -19.057187 54.868822 7.027760 10.890096 -3.519997 -6.471763 
